<?xml version="1.0" encoding="UTF-8"?>
<svg xmlns="http://www.w3.org/2000/svg" viewBox="0 0 48 48" width="32px" height="32px">
<g id="surface31318532">
<path style=" stroke:none;fill-rule:nonzero;fill:rgb(0%,0%,0%);fill-opacity:1;" d="M 15 7 C 8.941406 7 4 11.941406 4 18 C 4 22.097656 7.085938 25.953125 10.851562 29.90625 C 14.617188 33.863281 19.25 37.871094 22.9375 41.558594 C 23.523438 42.144531 24.476562 42.144531 25.058594 41.558594 C 28.75 37.871094 33.382812 33.863281 37.148438 29.90625 C 40.914062 25.953125 44 22.097656 44 18 C 44 11.941406 39.058594 7 33 7 C 29.523438 7 26.496094 8.867188 24 12.035156 C 21.503906 8.867188 18.476562 7 15 7 Z M 15 10 C 17.929688 10 20.367188 11.558594 22.730469 15.300781 C 23.007812 15.734375 23.484375 16 24 16 C 24.515625 16 24.992188 15.734375 25.265625 15.300781 C 27.632812 11.558594 30.070312 10 33 10 C 37.4375 10 41 13.5625 41 18 C 41 20.402344 38.585938 24.046875 34.976562 27.839844 C 31.683594 31.300781 27.589844 34.917969 24 38.417969 C 20.410156 34.917969 16.316406 31.300781 13.023438 27.839844 C 9.414062 24.046875 7 20.402344 7 18 C 7 13.5625 10.5625 10 15 10 Z M 15 10 "/>
<path style=" stroke:none;fill-rule:nonzero;fill:rgb(0%,0%,0%);fill-opacity:1;" d="M 25.90625 18.75 L 25.90625 23.832031 L 30.601562 23.832031 L 30.601562 27.226562 L 25.90625 27.226562 L 25.90625 32.53125 L 22.332031 32.53125 L 22.332031 27.226562 L 17.625 27.226562 L 17.625 23.832031 L 22.332031 23.832031 L 22.332031 18.75 Z M 25.90625 18.75 "/>
</g>
</svg>
