<svg fill="#ffffff" xmlns="http://www.w3.org/2000/svg"  viewBox="0 0 26 26" width="104px" height="104px"><path d="M 16 11.199219 C 17.800781 10.199219 18.601563 8.898438 18.601563 7.300781 C 18.601563 5.898438 17.199219 3 12.898438 3 C 7.601563 3 7 7.800781 7 9.199219 C 7 10.601563 7 22.398438 7 22.398438 C 7 24.699219 6.101563 26 6.101563 26 L 9.199219 26 C 9.199219 26 10 25.199219 10 22.398438 L 10 20.601563 C 10.601563 21.199219 11.800781 22 13.199219 22 C 18.800781 22 20 18.101563 20 16.300781 C 20 14 18.601563 12.300781 16 11.199219 Z M 13 21 C 11.601563 21 10.601563 20.199219 10 19 L 10 8.199219 C 10 4.601563 12.300781 4 13 4 C 13.898438 4 16 5 16 7.398438 C 16 9 15.601563 9.800781 14.898438 10.898438 C 14.101563 10.699219 13.398438 10.601563 12.898438 10.601563 C 12 10.601563 11.601563 10.800781 11.601563 11.199219 C 11.601563 11.699219 12.101563 11.898438 13.199219 11.898438 C 13.699219 11.898438 14.199219 11.800781 14.898438 11.699219 C 16 12.5 17.199219 13.199219 17.199219 16.101563 C 17.101563 19.699219 14.398438 21 13 21 Z"/></svg>